<?xml version="1.0" encoding="UTF-8"?><svg id="a" xmlns="http://www.w3.org/2000/svg" viewBox="0 0 557.61 557.61"><defs><style>.b{fill:#fff200;stroke:#414042;stroke-width:1.16px;}.b,.c{stroke-miterlimit:10;}.c{fill:none;stroke:#fff;stroke-dasharray:0 0 12.76 11.73;stroke-width:3.93px;}.d{fill:#fff;}.e{fill:#231f20;}</style></defs><circle class="e" cx="278.81" cy="278.81" r="278.8"/><circle class="c" cx="278.81" cy="278.18" r="265.17"/><g><path class="b" d="M171.86,280.46l-6.11-56.17-31.94-64.89,20.84-2.27,17.57,35.81,9.46-38.76,20.84-2.27-17.23,70.25,6.11,56.17-19.54,2.13Zm8.85-9.53c.43-.05,.63-.29,.58-.72l-5.3-48.68,14.69-58.77c.07-.34,.1-.61,.07-.83-.04-.33-.22-.47-.54-.44-.43,.05-.68,.3-.74,.74l-14.36,57.25-26.33-52.66c-.28-.52-.58-.76-.9-.73s-.47,.22-.44,.54c.01,.11,.16,.48,.45,1.1l26.79,53.92,5.3,48.68c.05,.43,.29,.63,.72,.58Z"/><path class="b" d="M261.89,273.13c-8.03,.87-14.79-.89-20.26-5.29-5.48-4.4-8.65-10.62-9.53-18.65l-10.81-99.32,19.54-2.13,10.95,100.62c.24,2.17,1.11,3.86,2.61,5.07,1.5,1.21,3.34,1.7,5.51,1.46,2.17-.24,3.86-1.1,5.07-2.61,1.21-1.5,1.7-3.34,1.46-5.51l-10.95-100.62,19.54-2.13,10.81,99.32c.89,8.14-.85,14.92-5.2,20.34-4.35,5.42-10.6,8.57-18.74,9.45Zm-14.32-11.95c3.61,2.9,8.07,4.06,13.39,3.48,5.32-.58,9.43-2.67,12.33-6.28s4.06-8.07,3.48-13.39l-9.89-90.85c-.05-.43-.29-.63-.72-.58s-.63,.29-.58,.72l9.89,90.85c.54,4.99-.52,9.15-3.17,12.45-2.66,3.31-6.49,5.24-11.48,5.78-4.99,.54-9.15-.51-12.45-3.17-3.31-2.66-5.24-6.49-5.78-11.48l-9.89-90.85c-.05-.43-.29-.63-.72-.58s-.63,.29-.58,.72l9.89,90.85c.58,5.32,2.67,9.43,6.28,12.33Z"/><path class="b" d="M308.79,265.19l-13.47-123.74,16.12-1.75,23.44,48.85,12.38-52.75,16.12-1.75,13.47,123.74-19.54,2.13-6.54-60.08-8.22,35-5.21,.57-15.55-32.41,6.54,60.08-19.54,2.13Zm8.85-9.53c.43-.05,.63-.29,.58-.72l-11.01-101.11,29.29,60.24c.42,.83,.85,1.23,1.28,1.18s.77-.52,1-1.43l15.65-65.13,11.01,101.11c.05,.43,.29,.63,.72,.58s.63-.29,.58-.72l-10.94-100.46c-.13-1.19-.63-1.74-1.5-1.65-.65,.07-1.09,.56-1.32,1.46l-15.43,64.12-28.86-59.3c-.42-.83-.96-1.21-1.61-1.14-.87,.09-1.24,.74-1.11,1.93l10.94,100.46c.05,.43,.29,.63,.72,.58Z"/></g><g><path class="b" d="M202.52,430.93c-8.37,.91-15.41-.92-21.11-5.51-5.71-4.58-9.01-11.06-9.92-19.43l-8.49-78.03c-.92-8.48,.88-15.54,5.42-21.19,4.54-5.64,11.04-8.93,19.53-9.85,8.37-.91,15.4,.93,21.11,5.51,5.7,4.59,9.01,11.06,9.92,19.43l1.66,15.27-20.36,2.22-1.81-16.62c-.25-2.26-1.15-4.02-2.72-5.28-1.57-1.26-3.48-1.77-5.74-1.52-2.26,.25-4.02,1.15-5.28,2.72-1.26,1.57-1.77,3.48-1.52,5.74l8.79,80.75c.25,2.26,1.15,4.02,2.72,5.28,1.57,1.26,3.48,1.77,5.74,1.52s4.02-1.15,5.28-2.72,1.77-3.48,1.52-5.74l-1.81-16.62,20.36-2.22,1.66,15.27c.92,8.48-.88,15.54-5.42,21.19-4.54,5.64-11.04,8.93-19.53,9.85Zm-14.92-12.45c3.76,3.02,8.41,4.23,13.95,3.63,5.54-.6,9.82-2.79,12.85-6.55,3.02-3.76,4.23-8.41,3.63-13.96l-.7-6.45c-.05-.45-.3-.65-.75-.6s-.65,.3-.6,.75l.7,6.45c.57,5.2-.54,9.53-3.31,12.98-2.77,3.45-6.76,5.46-11.96,6.02-5.2,.57-9.53-.53-12.98-3.31-3.45-2.77-5.46-6.76-6.02-11.96l-8.64-79.39c-.57-5.2,.53-9.53,3.31-12.98,2.77-3.45,6.76-5.46,11.96-6.02,5.2-.57,9.53,.54,12.98,3.31,3.45,2.77,5.46,6.76,6.02,11.96l.7,6.45c.05,.45,.3,.65,.75,.6s.65-.3,.6-.75l-.7-6.45c-.6-5.54-2.79-9.82-6.55-12.85-3.76-3.02-8.42-4.23-13.96-3.63-5.54,.6-9.82,2.79-12.85,6.55s-4.23,8.42-3.63,13.96l8.64,79.39c.6,5.54,2.79,9.82,6.55,12.85Z"/><path class="b" d="M251.21,423.38l-14.03-128.92,20.36-2.22,5.98,54.96,15.27-1.66-5.98-54.96,20.36-2.22,14.03,128.92-20.36,2.22-5.98-54.96-15.27,1.66,5.98,54.96-20.36,2.22Zm9.22-9.93c.45-.05,.65-.3,.6-.75l-5.91-54.28,34.27-3.73,5.91,54.28c.05,.45,.3,.65,.75,.6s.65-.3,.6-.75l-11.97-109.92c-.05-.45-.3-.65-.75-.6s-.65,.3-.6,.75l5.91,54.28-34.27,3.73-5.91-54.28c-.05-.45-.3-.65-.75-.6s-.65,.3-.6,.75l11.97,109.92c.05,.45,.3,.65,.75,.6Z"/><path class="b" d="M328.58,414.64l4.12-130.9,28.67-3.12,32.01,126.97-20.36,2.22-6.72-28.62-16.96,1.85-.24,29.38-20.53,2.23Zm10.57-10.08c.56-.06,.82-.32,.77-.77l.65-28.74,32.74-3.56,6.82,27.92c.05,.45,.35,.65,.92,.59,.34-.04,.48-.34,.42-.9l-26.72-108.32c-.04-.34-.28-.48-.73-.44l-12.04,1.31c-.45,.05-.66,.24-.62,.58l-2.79,111.53c.06,.57,.26,.83,.6,.79Zm1.44-30.88l2.03-80.72,11.03-1.2,19.35,78.4-32.4,3.53Zm9.05-9.91l12.38-1.35-11.74-49.53-.64,50.88Z"/></g><g><path class="d" d="M397.51,131.78l1.31-.14,.14,1.31,.36,3.35,.14,1.31-1.31,.14-7,.76,.99,9.14,3.64-.4,1.31-.14,.14,1.31,.36,3.35,.14,1.29-1.31,.14-3.64,.4,1,9.16,7-.76,1.31-.14,.14,1.29,.36,3.35,.14,1.31-1.31,.14-11.64,1.27-1.31,.14-.14-1.31-3.65-33.56-.14-1.31,1.31-.14,11.64-1.27Zm-10.06,3.75l3.37,30.96,9.06-.99-.08-.75-7,.76-1.31,.14-.14-1.31-1.28-11.74-.14-1.31,1.31-.14,3.64-.4-.08-.75-3.64,.4-1.31,.14-.14-1.29-1.28-11.76-.14-1.29,1.31-.14,7-.76-.08-.75-9.06,.99Z"/><path class="d" d="M415.59,160.76l-.4,4.62-.09,1.11-1.27,.14-3.89,.42-1.79,.19,.15-1.55,2.99-34.31,.09-1.11,1.27-.14,4.23-.46,1.27-.14,.33,1.06,10.3,32.86,.48,1.49-1.79,.19-3.89,.42-1.27,.14-.35-1.06-1.37-4.42-4.98,.54Zm8.95,2.06l.83-.09-9.49-30.29-1.69,.18-2.75,31.63,.83-.09,.49-5.72,3.06-.33,3.93-.43,3.06-.33,1.71,5.48Zm-1.97-6.34l.03,.12-3.06,.33-3.64,.4-3.06,.33v-.13l.31-3.42,1.28-14,.49-6.14,.56-.06,1.92,5.88,4.14,13.41,1.03,3.28Zm-5.88-8.73l-.63,7.19,2.81-.31-2.18-6.88Zm-.52,6.48l.54-6.29-.54,6.29Z"/><path class="d" d="M431.08,134.18l-1.31,.14-.14-1.31-.36-3.35-.14-1.31,1.31-.14,5.04-.55,3.35-.36,5.04-.55,1.29-.14,.14,1.31,.36,3.35,.14,1.31-1.29,.14-3.75,.41,3.15,28.9,.14,1.31-1.29,.14-3.35,.36-1.31,.14-.14-1.31-3.15-28.9-3.73,.41Zm4.76-3.15l1.29-.14,.14,1.29,3.15,28.92,.75-.08-3.15-28.92-.14-1.29,1.31-.14,3.73-.41-.08-.75-3.73,.41-3.35,.36-3.75,.41,.08,.75,3.75-.41Z"/><path class="d" d="M401.37,217.59c-2.15,.23-4.03-.34-5.64-1.72-1.6-1.4-2.52-3.22-2.77-5.47l-.27-2.52-.14-1.31,1.31-.14,3.35-.36,1.29-.14,.14,1.31,.27,2.52c.07,.68,.3,1.2,.67,1.55,.28,.28,.66,.39,1.13,.34,.35-.04,.59-.18,.73-.44,.16-.37,.19-.95,.11-1.74l-.55-5.04c-.02-.18-.16-.4-.41-.65-.39-.39-.94-.78-1.64-1.17-2.31-1.21-4.08-2.38-5.31-3.51-1.42-1.28-2.19-2.55-2.33-3.81l-.55-5.02c-.25-2.26,.26-4.24,1.52-5.94,1.26-1.71,2.97-2.68,5.14-2.92,2.11-.23,3.9,.35,5.37,1.73,1.44,1.37,2.29,3.22,2.54,5.54l.27,2.52,.14,1.29-1.31,.14-3.35,.36-1.31,.14-.14-1.29-.27-2.52c-.08-.78-.24-1.34-.48-1.68-.18-.22-.45-.31-.81-.27-.49,.05-.83,.24-1.03,.58-.29,.44-.4,.99-.33,1.66l.55,5.02c0-.07,.2,.07,.64,.42,.86,.66,1.73,1.2,2.62,1.59,1.94,.95,3.43,1.99,4.47,3.12,1.18,1.25,1.84,2.59,2,4.02l.55,5.04c.25,2.33-.18,4.31-1.29,5.93-1.14,1.67-2.76,2.62-4.87,2.85Zm2.71-4.32c.75-1.09,1.04-2.49,.85-4.18l-.55-5.04c-.09-.86-.52-1.7-1.28-2.51-.86-.9-2.09-1.75-3.71-2.55-.4-.18-.89-.44-1.47-.79-.58-.34-1.11-.71-1.6-1.09-1.03-.8-1.58-1.53-1.65-2.2l-.55-5.02c-.14-1.3,.11-2.44,.77-3.41,.68-1,1.65-1.57,2.91-1.71,1.33-.15,2.39,.29,3.17,1.3,.54,.71,.88,1.7,1.02,2.96l.13,1.21,.75-.08-.13-1.21c-.18-1.68-.76-2.98-1.73-3.9-.89-.83-1.99-1.17-3.29-1.03-1.42,.15-2.53,.77-3.34,1.86-.84,1.16-1.18,2.52-1.01,4.09l.55,5.02c.07,.61,.56,1.33,1.48,2.16,1.03,.94,2.62,1.98,4.79,3.12,.31,.18,.68,.41,1.11,.69,.42,.28,.82,.61,1.18,.98,.69,.7,1.08,1.43,1.17,2.19l.55,5.04c.14,1.25,.02,2.29-.36,3.11-.55,1.16-1.49,1.81-2.82,1.95-1.26,.14-2.33-.21-3.21-1.04-.84-.79-1.34-1.85-1.48-3.17l-.13-1.21-.75,.08,.13,1.21c.17,1.57,.79,2.82,1.86,3.76,1.01,.9,2.23,1.27,3.66,1.12,1.3-.14,2.3-.71,2.99-1.72Z"/><path class="d" d="M411.23,185.95l-1.31,.14-.14-1.31-.36-3.35-.14-1.31,1.31-.14,5.04-.55,3.35-.36,5.04-.55,1.29-.14,.14,1.31,.36,3.35,.14,1.31-1.29,.14-3.75,.41,3.15,28.9,.14,1.31-1.29,.14-3.35,.36-1.31,.14-.14-1.31-3.15-28.9-3.73,.41Zm4.76-3.15l1.29-.14,.14,1.29,3.15,28.92,.75-.08-3.15-28.92-.14-1.29,1.31-.14,3.73-.41-.08-.75-3.73,.41-3.35,.36-3.75,.41,.08,.75,3.75-.41Z"/><path class="d" d="M437.96,207.25l1.29-.14,.14,1.29,.4,3.69,.14,1.31-1.29,.14-3.69,.4-1.31,.14-.14-1.31-.4-3.69-.14-1.29,1.31-.14,3.69-.4Zm-2.11,2.86l.12,1.08,1.08-.12-.12-1.08-1.08,.12Z"/></g></svg>